<svg width="325" height="325" viewBox="0 0 325 325" fill="none" xmlns="http://www.w3.org/2000/svg">
<g opacity="0.55">
<g clip-path="url(#clip0_208_135)">
<path d="M109.856 200.585C140.898 189.737 174.544 188.799 206.143 197.899C233.494 172.394 269.101 157.563 306.474 156.107C306.222 150.389 305.643 144.691 304.741 139.038C287.904 130.277 269.506 124.919 250.597 123.271C231.688 121.622 212.639 123.716 194.54 129.432C176.441 135.148 159.646 144.374 145.115 156.583C130.585 168.792 118.603 183.744 109.856 200.585Z" fill="#0059FF"/>
<path d="M167.403 126.851C188.076 116.449 210.791 110.738 233.927 110.124C257.062 109.51 280.049 114.008 301.245 123.298C292.587 92.4904 273.939 65.4303 248.228 46.368C222.518 27.3056 191.203 17.3209 159.201 17.982C127.199 18.6431 96.3226 29.9126 71.422 50.0204C46.5215 70.1283 29.007 97.9354 21.6294 129.074C43.9428 116.966 68.8571 110.439 94.2427 110.052C119.628 109.665 144.73 115.428 167.403 126.851Z" fill="#FFB600"/>
<path d="M219.981 202.722C243.212 211.914 263.912 226.519 280.358 245.322C296.158 222.859 305.182 196.337 306.358 168.902C274.613 170.296 244.23 182.193 219.981 202.722ZM92.5517 207.863C104.867 177.645 126.294 152.014 153.854 134.533C132.146 125.184 108.476 121.304 84.9186 123.233C61.3615 125.161 38.6376 132.84 18.7406 145.595C14.5783 180.784 23.5931 216.268 44.0472 245.206C57.611 229.701 74.0916 217.012 92.5517 207.863ZM51.9917 255.488C65.5263 271.524 82.3996 284.413 101.433 293.254C120.466 302.096 141.201 306.676 162.188 306.676C183.176 306.676 203.91 302.096 222.944 293.254C241.977 284.413 258.85 271.524 272.385 255.488C258.825 239.492 241.944 226.639 222.914 217.824C203.884 209.009 183.162 204.443 162.188 204.443C141.215 204.443 120.493 209.009 101.463 217.824C82.433 226.639 65.5514 239.492 51.9917 255.488Z" fill="#0059FF"/>
</g>
</g>
<g clip-path="url(#clip1_208_135)">
<path d="M158.208 224.731C158.077 224.9 157.928 225.059 157.753 225.199L147.11 233.66C158.99 233.531 169.304 229.556 175.917 226.207C169.873 226.115 163.918 225.569 158.208 224.731Z" fill="black"/>
<path d="M196.204 211.56H152.57C151.047 211.56 149.812 210.346 149.812 208.848C149.812 207.35 151.047 206.136 152.57 206.136H188.37L183.739 202.928C183.052 202.453 182.623 201.696 182.573 200.871C182.524 200.046 182.859 199.244 183.484 198.693L187.341 195.285H158.432C156.909 195.285 155.673 194.071 155.673 192.573C155.673 191.075 156.909 189.86 158.432 189.86H193.483L201.394 182.872L198.554 181.334C193.652 178.679 188.104 177.276 182.509 177.276C180.157 177.276 177.799 177.524 175.5 178.011L112.093 190.822C111.26 190.991 110.395 190.772 109.747 190.228L92 175.336L100.329 197.214C100.562 197.827 100.562 198.503 100.329 199.116L92 220.994L109.747 206.102C110.567 205.415 111.716 205.259 112.693 205.702C112.75 205.728 112.805 205.755 112.859 205.784C115.036 206.793 145.866 220.797 177.728 220.797C187.408 220.797 196.191 219.522 204.052 216.995L196.204 211.56Z" fill="black"/>
<path d="M125.864 216.752L115.784 225.521C123.322 224.178 130.559 221.74 135.576 219.801C132.048 218.794 128.788 217.754 125.864 216.752Z" fill="black"/>
<path d="M193.547 170.881C192.34 166.811 188.632 164.053 184.32 164.02L109.36 163.467L129.765 181.574C129.805 181.61 129.837 181.653 129.875 181.691L174.363 172.703C177.018 172.14 179.767 171.852 182.509 171.852C186.542 171.852 190.554 172.479 194.38 173.687L193.547 170.881Z" fill="black"/>
<path d="M206.511 185.644L189.746 200.453L210.262 214.661C218.516 211.06 225.593 205.883 231.448 199.148L206.511 185.644ZM210.498 200.711C208.975 200.711 207.74 199.496 207.74 197.998C207.74 196.5 208.975 195.286 210.498 195.286C212.021 195.286 213.257 196.5 213.257 197.998C213.257 199.496 212.021 200.711 210.498 200.711Z" fill="black"/>
</g>
<defs>
<clipPath id="clip0_208_135">
<rect width="288.726" height="288.725" fill="white" transform="translate(17.748 17.9512)"/>
</clipPath>
<clipPath id="clip1_208_135">
<rect width="139.448" height="137.127" fill="white" transform="translate(92 130)"/>
</clipPath>
</defs>
</svg>
